<svg width="21" height="21" viewBox="0 0 21 21" fill="none" xmlns="http://www.w3.org/2000/svg">
<path d="M10.4879 3.05749e-10C10.1114 3.05749e-10 9.73527 0.0202376 9.361 0.0605815C9.01795 0.0956251 8.67911 0.153096 8.34483 0.222833C8.28014 0.236369 8.2154 0.250649 8.15071 0.265586C6.18113 0.714056 4.38269 1.72116 2.97104 3.16614C2.83977 3.30071 2.71126 3.43926 2.5856 3.58176C-1.22767 7.95992 -0.77004 14.6007 3.60777 18.4143C7.79894 22.0653 14.1077 21.8224 18.0058 17.8599C18.1373 17.7253 18.2658 17.5868 18.3912 17.4443C20.0741 15.5277 21.0015 13.0637 21 10.513C21 4.70679 16.2936 -4.38041e-05 10.4879 3.05749e-10ZM3.43813 3.69179C3.49349 3.63432 3.55096 3.5793 3.60737 3.52358C3.67255 3.45945 3.73737 3.39497 3.80395 3.33295C3.86247 3.27828 3.92274 3.22571 3.98266 3.17245C4.05028 3.11252 4.11756 3.0526 4.18694 2.99478C4.24791 2.94326 4.31063 2.89385 4.37301 2.84409C4.44309 2.78802 4.51317 2.73195 4.58535 2.67798C4.64912 2.62997 4.71395 2.58337 4.77912 2.53781C4.85166 2.48594 4.92454 2.43268 4.99848 2.38432C5.0647 2.33946 5.13163 2.29601 5.19891 2.25291C5.27389 2.2049 5.34923 2.15759 5.42527 2.11273C5.49373 2.07186 5.56263 2.03165 5.63201 1.99218C5.70958 1.94803 5.78745 1.90492 5.86572 1.86287C5.93581 1.82551 6.00589 1.78893 6.07597 1.75318C6.15586 1.71288 6.23645 1.67399 6.31739 1.63579C6.38748 1.6025 6.46036 1.56921 6.53254 1.53767C6.61489 1.50262 6.69828 1.46758 6.78168 1.43254C6.85421 1.40275 6.9264 1.37366 6.99963 1.34563C7.08443 1.31339 7.17028 1.28325 7.25612 1.25311C7.32936 1.22753 7.40259 1.20195 7.47688 1.17777C7.56413 1.14973 7.65208 1.1238 7.74038 1.09822C7.81432 1.07684 7.88755 1.05477 7.96184 1.03479C7.99022 1.02743 8.0186 1.02148 8.04699 1.01412C7.00979 2.02131 6.24009 3.27131 5.80756 4.65093C4.97588 4.43156 4.17074 4.12169 3.40659 3.72684C3.41816 3.71457 3.42797 3.70231 3.43813 3.69179ZM2.93425 4.25599C3.77596 4.71209 4.66853 5.06734 5.59346 5.31431C5.14004 6.89109 4.90203 8.52198 4.886 10.1626H0.68466C0.761004 7.99913 1.55208 5.92201 2.93425 4.25599ZM2.93425 16.77C1.55217 15.104 0.761092 13.0269 0.68466 10.8635H4.886C4.90203 12.5041 5.14 14.1349 5.59346 15.7117C4.66857 15.9588 3.77601 16.314 2.93425 16.77ZM7.95974 19.9926C7.88895 19.9748 7.81572 19.9516 7.74284 19.9303C7.65418 19.9043 7.56518 19.8784 7.47758 19.85C7.40364 19.8262 7.33076 19.8006 7.25788 19.775C7.17168 19.7452 7.08548 19.7148 7.00033 19.6822C6.92745 19.6545 6.85561 19.6254 6.78343 19.596C6.69968 19.5609 6.61594 19.5259 6.53289 19.4908C6.46141 19.4593 6.39028 19.4268 6.3195 19.3934C6.23785 19.3549 6.15656 19.3156 6.07421 19.275C6.00413 19.2399 5.93405 19.2049 5.86397 19.1667C5.78478 19.1243 5.70629 19.0808 5.6278 19.036C5.55772 18.9971 5.49114 18.9571 5.42352 18.9165C5.34643 18.8702 5.27074 18.8225 5.19505 18.7738C5.12848 18.7314 5.0619 18.6883 4.99637 18.6442C4.92174 18.5937 4.8478 18.5411 4.77457 18.4886C4.71044 18.4427 4.64632 18.3968 4.58325 18.3484C4.51071 18.2937 4.43958 18.2373 4.3688 18.1805C4.30678 18.1311 4.24511 18.0821 4.18449 18.0313C4.11441 17.9731 4.04678 17.9125 3.9788 17.8522C3.91923 17.7993 3.85931 17.7471 3.80115 17.6931C3.73422 17.6307 3.6694 17.5659 3.60422 17.5018C3.54781 17.446 3.49034 17.391 3.43498 17.3339C3.42481 17.323 3.415 17.3118 3.40484 17.3013C4.16894 16.9063 4.97408 16.5963 5.80581 16.3769C6.23842 17.7564 7.00808 19.0064 8.04523 20.0137C8.01685 20.0063 7.98812 20.0004 7.95974 19.9926ZM10.1375 20.2975C8.63812 20.0845 7.32375 18.5194 6.4968 16.2083C7.69238 15.9406 8.91244 15.7969 10.1375 15.7797V20.2975ZM10.1375 15.0788C8.83793 15.0959 7.54385 15.2503 6.27675 15.5393C5.83677 14.019 5.60467 12.4461 5.5868 10.8635H10.1375V15.0788ZM10.1375 10.1626H5.5868C5.60463 8.57997 5.83673 7.00704 6.27675 5.48672C7.54385 5.7757 8.83798 5.93007 10.1375 5.9472V10.1626ZM10.1375 5.24632C8.91239 5.22924 7.69238 5.08561 6.4968 4.81774C7.32375 2.50662 8.63812 0.941576 10.1375 0.728511V5.24632ZM18.0415 4.25599C19.4236 5.92205 20.2147 7.99917 20.2911 10.1626H16.0898C16.0738 8.52198 15.8358 6.89109 15.3823 5.31431C16.3072 5.06721 17.1998 4.712 18.0415 4.25599ZM13.0133 1.03304C13.0868 1.05126 13.1601 1.07439 13.233 1.09577C13.3216 1.1217 13.4106 1.14763 13.4982 1.17602C13.5721 1.19985 13.645 1.22543 13.7179 1.25101C13.8041 1.2808 13.8903 1.31129 13.9755 1.34388C14.0483 1.37156 14.1202 1.40065 14.1924 1.43008C14.2761 1.46513 14.3599 1.50017 14.4429 1.53521C14.5144 1.56675 14.5855 1.59921 14.6563 1.63263C14.7379 1.67118 14.8192 1.71043 14.9016 1.75108C14.9717 1.78613 15.0417 1.82117 15.1118 1.85937C15.191 1.90177 15.2695 1.94522 15.348 1.99008C15.4181 2.02898 15.4846 2.06893 15.5523 2.10958C15.6294 2.15583 15.7051 2.20349 15.7807 2.2522C15.8473 2.29461 15.9139 2.33771 15.9794 2.38187C16.0541 2.43233 16.1276 2.48454 16.2009 2.53711C16.2653 2.58302 16.3295 2.62927 16.3929 2.67728C16.4651 2.7316 16.5359 2.78802 16.607 2.84479C16.6687 2.89385 16.7307 2.94291 16.7913 2.99408C16.8614 3.05225 16.929 3.11287 16.997 3.17315C17.0566 3.22606 17.1165 3.27828 17.1746 3.33225C17.2416 3.39462 17.3064 3.45945 17.3716 3.52358C17.428 3.5793 17.4855 3.63432 17.5408 3.69144C17.551 3.70231 17.5608 3.71352 17.5709 3.72403C16.8069 4.11906 16.0017 4.42907 15.17 4.64848C14.7365 3.26873 13.9659 2.01886 12.9278 1.01201C12.9561 1.01937 12.9849 1.02533 13.0133 1.03304ZM10.8383 0.728511C12.3377 0.941576 13.652 2.50662 14.479 4.81774C13.2834 5.08547 12.0634 5.22911 10.8383 5.24632V0.728511ZM10.8383 5.9472C12.1379 5.93011 13.4319 5.77574 14.699 5.48672C15.139 7.00704 15.3711 8.57997 15.389 10.1626H10.8383V5.9472ZM10.8383 10.8635H15.389C15.3712 12.4461 15.1391 14.019 14.699 15.5393C13.4319 15.2503 12.1379 15.096 10.8383 15.0788V10.8635ZM10.8383 20.2975V15.7797C12.0634 15.7968 13.2834 15.9404 14.479 16.2083C13.652 18.5194 12.3377 20.0845 10.8383 20.2975ZM17.5377 17.3342C17.4823 17.3914 17.4252 17.4464 17.3688 17.5021C17.3036 17.5662 17.2384 17.6311 17.1715 17.6934C17.1133 17.7478 17.0534 17.7986 16.9938 17.8529C16.9259 17.9132 16.8582 17.9734 16.7889 18.0316C16.7275 18.0828 16.6652 18.1322 16.6028 18.1819C16.5327 18.238 16.4626 18.2941 16.3904 18.3481C16.3267 18.3961 16.2618 18.4427 16.1967 18.4882C16.1241 18.5401 16.0513 18.5934 15.9773 18.6417C15.9111 18.6866 15.8442 18.73 15.7769 18.7728C15.7019 18.8211 15.6263 18.8679 15.5502 18.913C15.4801 18.954 15.4132 18.9939 15.3441 19.0335C15.2666 19.0777 15.1886 19.1208 15.1101 19.1628C15.04 19.2002 14.9699 19.2368 14.8998 19.2725C14.8199 19.3128 14.7393 19.3517 14.6584 19.3899C14.5883 19.4232 14.5154 19.4565 14.4433 19.488C14.3609 19.5231 14.2775 19.5581 14.1941 19.5931C14.1216 19.6226 14.0494 19.652 13.9765 19.6797C13.891 19.7123 13.8052 19.7428 13.719 19.7726C13.6461 19.7982 13.5732 19.8237 13.4993 19.8476C13.4117 19.876 13.3241 19.9019 13.2347 19.9275C13.1615 19.9492 13.0879 19.9709 13.014 19.9909C12.9856 19.9983 12.9572 20.0042 12.9288 20.0116C13.966 19.0044 14.7357 17.7544 15.1682 16.3748C15.9999 16.5941 16.8051 16.904 17.5692 17.2988C17.5576 17.3115 17.5478 17.3237 17.5377 17.3342ZM18.0415 16.77C17.1998 16.3139 16.3073 15.9587 15.3823 15.7117C15.8358 14.1349 16.0738 12.5041 16.0898 10.8635H20.2911C20.2148 13.0269 19.4237 15.104 18.0415 16.77Z" fill="black"/>
</svg>
